<svg height='200' width='200'  fill="#000000" xmlns="http://www.w3.org/2000/svg" xmlns:xlink="http://www.w3.org/1999/xlink" version="1.1" x="0px" y="0px" viewBox="0 0 100 100" enable-background="new 0 0 100 100" xml:space="preserve"><path d="M50,6.25C25.876,6.25,6.25,25.876,6.25,50S25.876,93.75,50,93.75S93.75,74.124,93.75,50S74.124,6.25,50,6.25z M50,93.25  C26.152,93.25,6.75,73.848,6.75,50C6.75,26.152,26.152,6.75,50,6.75c15.307,0,28.773,8.001,36.462,20.034  C79.094,16.197,66.846,9.25,53,9.25C30.53,9.25,12.25,27.53,12.25,50S30.53,90.75,53,90.75c13.846,0,26.093-6.947,33.461-17.532  C78.772,85.25,65.307,93.25,50,93.25z M74,30.25c-10.891,0-19.75,8.86-19.75,19.75c0,10.891,8.859,19.75,19.75,19.75  c6.64,0,12.512-3.304,16.094-8.343C86.203,67.896,79.101,72.25,71,72.25c-12.269,0-22.25-9.981-22.25-22.25S58.731,27.75,71,27.75  c8.102,0,15.204,4.354,19.095,10.844C86.513,33.554,80.641,30.25,74,30.25z M90.468,40.083C87.415,35.948,82.523,33.25,77,33.25  c-9.236,0-16.75,7.514-16.75,16.75c0,9.236,7.514,16.75,16.75,16.75c5.522,0,10.414-2.698,13.467-6.832  C87.093,65.499,80.984,69.25,74,69.25c-10.614,0-19.25-8.636-19.25-19.25S63.386,30.75,74,30.75  C80.984,30.75,87.094,34.502,90.468,40.083z M77,66.25c-8.96,0-16.25-7.29-16.25-16.25c0-8.96,7.29-16.25,16.25-16.25  c5.951,0,11.15,3.225,13.982,8.01C88.47,38.422,84.489,36.25,80,36.25c-7.582,0-13.75,6.168-13.75,13.75  c0,7.582,6.168,13.75,13.75,13.75c4.488,0,8.469-2.171,10.98-5.508C88.149,63.025,82.95,66.25,77,66.25z M71,27.25  c-12.544,0-22.75,10.206-22.75,22.75c0,12.544,10.206,22.75,22.75,22.75c7.645,0,14.417-3.795,18.544-9.597  C85.102,70.403,77.107,75.25,68,75.25c-13.923,0-25.25-11.327-25.25-25.25S54.077,24.75,68,24.75c9.106,0,17.1,4.846,21.543,12.094  C85.415,31.044,78.644,27.25,71,27.25z M80,63.25c-7.306,0-13.25-5.944-13.25-13.25c0-7.306,5.944-13.25,13.25-13.25  c4.916,0,9.207,2.698,11.494,6.685c-1.968-2.54-5.039-4.185-8.494-4.185c-5.928,0-10.75,4.822-10.75,10.75S77.072,60.75,83,60.75  c3.454,0,6.525-1.645,8.493-4.184C89.206,60.552,84.916,63.25,80,63.25z M68,24.25c-14.198,0-25.75,11.551-25.75,25.75  c0,14.198,11.552,25.75,25.75,25.75c8.679,0,16.363-4.321,21.031-10.92C84.047,72.877,75.141,78.25,65,78.25  c-15.577,0-28.25-12.673-28.25-28.25S49.423,21.75,65,21.75c10.14,0,19.045,5.372,24.029,13.418C84.362,28.57,76.678,24.25,68,24.25  z M83,60.25c-5.652,0-10.25-4.598-10.25-10.25c0-5.652,4.598-10.25,10.25-10.25c3.884,0,7.27,2.171,9.008,5.363  C90.586,43.368,88.422,42.25,86,42.25c-4.273,0-7.75,3.477-7.75,7.75s3.477,7.75,7.75,7.75c2.422,0,4.587-1.118,6.009-2.864  C90.271,58.079,86.884,60.25,83,60.25z M65,21.25c-15.853,0-28.75,12.897-28.75,28.75c0,15.853,12.897,28.75,28.75,28.75  c9.713,0,18.31-4.847,23.518-12.243C82.992,75.351,73.175,81.25,62,81.25c-17.231,0-31.25-14.019-31.25-31.25S44.769,18.75,62,18.75  c11.174,0,20.99,5.898,26.516,14.741C83.308,26.095,74.712,21.25,65,21.25z M86,57.25c-3.998,0-7.25-3.252-7.25-7.25  c0-3.998,3.252-7.25,7.25-7.25c2.859,0,5.328,1.667,6.508,4.076c-0.87-0.961-2.113-1.576-3.508-1.576c-2.619,0-4.75,2.131-4.75,4.75  s2.131,4.75,4.75,4.75c1.395,0,2.639-0.615,3.508-1.576C91.329,55.583,88.859,57.25,86,57.25z M62,18.25  c-17.507,0-31.75,14.243-31.75,31.75S44.493,81.75,62,81.75c10.747,0,20.257-5.372,26.005-13.567  C81.938,77.825,71.208,84.25,59,84.25c-18.886,0-34.25-15.364-34.25-34.25S40.114,15.75,59,15.75  c12.208,0,22.938,6.425,29.005,16.067C82.257,23.622,72.747,18.25,62,18.25z M89,54.25c-2.344,0-4.25-1.906-4.25-4.25  c0-2.343,1.906-4.25,4.25-4.25c1.832,0,3.383,1.172,3.979,2.8c-0.28-0.189-0.616-0.3-0.979-0.3c-0.965,0-1.75,0.785-1.75,1.75  s0.785,1.75,1.75,1.75c0.362,0,0.699-0.111,0.979-0.3C92.383,53.078,90.832,54.25,89,54.25z M59,15.25  c-19.161,0-34.75,15.589-34.75,34.75S39.839,84.75,59,84.75c11.781,0,22.205-5.898,28.492-14.891  C80.885,80.299,69.243,87.25,56,87.25c-20.54,0-37.25-16.71-37.25-37.25c0-20.54,16.71-37.25,37.25-37.25  c13.242,0,24.883,6.951,31.49,17.389C81.203,21.147,70.78,15.25,59,15.25z M92,51.25c-0.689,0-1.25-0.561-1.25-1.25  s0.561-1.25,1.25-1.25s1.25,0.561,1.25,1.25S92.689,51.25,92,51.25z M56,12.25c-20.815,0-37.75,16.935-37.75,37.75  S35.185,87.75,56,87.75c12.815,0,24.151-6.424,30.978-16.215C79.831,82.773,67.276,90.25,53,90.25  c-22.194,0-40.25-18.056-40.25-40.25C12.75,27.806,30.806,9.75,53,9.75c14.276,0,26.83,7.477,33.977,18.713  C80.15,18.673,68.814,12.25,56,12.25z"></path></svg>